<svg xmlns="http://www.w3.org/2000/svg" xml:space="preserve" id="Layer_1" fill="#000" viewBox="0 0 456.5 456.5"><g id="SVGRepo_iconCarrier"><path d="M207.92 190.269h43.5v20.5h-43.5z" style="fill:#666"/><path d="M222.54 195.329H63.22v-34.58c0-7.79 6.77-13.84 14.5-12.96l25.54 2.89 12.16 1.37 44.84 5.07 12.16 1.38 19.15 2.16c17.64 1.99 30.97 16.91 30.97 34.67" style="fill:#b3b3b3"/><path d="M222.54 201.339v1.49H84.42c-9.2 0-18.21 2.14-26.06 6.19-22.01 11.34-37.96 31.57-43.78 55.49L0 260.969c6.85-28.16 25.62-51.95 51.48-65.28 9.97-5.14 21.36-7.86 32.94-7.86z" style="fill:#f4581b"/><path d="M91.943 187.828H222.54v20.441H91.943z" style="fill:#b3b3b3"/><path d="M115.42 152.049v54.72h-12.16v-56.09zm57 6.45v50.27h-12.16v-51.65z" style="fill:#999"/><path d="M343.245 171.776h16.452v-48.49h-16.452c-13.39 0-24.245 10.855-24.245 24.245s10.855 24.245 24.245 24.245m-35.764 85.4-14.193-4.854c13.847-40.493 51.876-67.699 94.631-67.699 17.091 0 33.972 4.408 48.817 12.748l-7.346 13.078c-12.608-7.082-26.948-10.826-41.472-10.826-36.34 0-68.665 23.128-80.437 57.553" style="fill:#f4581b"/><path id="XMLID_13_" d="M387.92 216.019c37.87 0 68.58 30.71 68.58 68.58 0 37.88-30.71 68.58-68.58 68.58-37.88 0-68.58-30.7-68.58-68.58 0-37.87 30.7-68.58 68.58-68.58m45.72 68.58c0-25.21-20.51-45.72-45.72-45.72s-45.72 20.51-45.72 45.72 20.51 45.72 45.72 45.72 45.72-20.51 45.72-45.72" style="fill:#666"/><path d="M135.848 308.929c-8.105 12.843-22.423 21.394-38.695 21.394s-30.59-8.552-38.695-21.394H33.022c9.809 25.873 34.829 44.254 64.131 44.254s54.322-18.381 64.131-44.254" style="fill:#666"/><path d="m381.301 288.128-90.526-169.811H256.42a7.5 7.5 0 0 1 0-15h38.855a7.5 7.5 0 0 1 6.618 3.972l92.644 173.783a7.5 7.5 0 0 1-3.09 10.146 7.5 7.5 0 0 1-10.146-3.09" style="fill:#b3b3b3"/><path d="M117.92 232.079h104.62v51.91H117.92z" style="fill:#666"/><path d="m307.74 195.329-3.98 7.5-24.84 65.44a69.2 69.2 0 0 1-10.08 15.73c-14.53 17.06-35.44 24.93-50.9 24.93l-7.95-24.93H84.42v-96.17l138.12 13.51 14.24 1.39 10.64-15.46z" style="fill:#666"/><path d="M268.84 283.999c-14.53 17.06-35.44 24.93-50.9 24.93H4.34v-24.93z" style="fill:#b3b3b3"/><path d="M165.72 283.989H28.58c.33-37.6 30.91-67.96 68.57-67.96 37.67 0 68.25 30.36 68.57 67.96" style="fill:#f4581b"/><path d="m275.133 229.516-33.576-7.932a4.5 4.5 0 1 1 2.069-8.759l33.576 7.932a4.5 4.5 0 0 1-2.069 8.759m-3.449 14.598-33.576-7.932a4.5 4.5 0 1 1 2.069-8.759l33.576 7.932a4.5 4.5 0 1 1-2.069 8.759m-3.448 14.598-33.576-7.932a4.5 4.5 0 1 1 2.069-8.759l33.576 7.932a4.5 4.5 0 1 1-2.069 8.759" style="fill:#ccc"/><path d="M294.8 145.589a33.78 33.78 0 0 0-29.9-.76l-23.36 10.8c-12.702 5.878-20.369 18.676-20.023 32.199.2 8.287 6.975 14.901 15.264 14.901h58.602c5.155 0 9.888-2.847 12.304-7.4h.053l2.98-7.93c5.99-15.96-.83-33.88-15.92-41.81" style="fill:#f4581b"/><circle cx="193.92" cy="244.269" r="24" style="fill:#999"/><circle cx="193.92" cy="244.269" r="14.341" style="fill:#666"/><path d="M282.42 118.317h-26a7.5 7.5 0 0 1 0-15h26z" style="fill:#666"/></g></svg>