<svg xmlns="http://www.w3.org/2000/svg" fill="currentColor" transform="scale(-1 1)" viewBox="0 0 32 32"><g id="SVGRepo_iconCarrier"><g id="Page-1" fill="none" fill-rule="evenodd" stroke="none" stroke-width="1"><g id="Icon-Set-Filled" fill="currentColor" transform="translate(-258 -309)"><path id="phone" d="m289.073 313.433-2.878-2.87a2.04 2.04 0 0 0-2.878 0l-4.317 5.74c-.659.971-.794 2.077 0 2.87l1.762 1.757c-1.306 1.75-2.874 3.658-4.639 5.418-1.996 1.99-4.216 3.799-6.212 5.285l-1.703-1.697c-.794-.793-1.903-.659-2.878 0l-5.756 4.305c-.965.665-.795 2.077 0 2.87l2.878 2.869c1.59 1.586 3.657 1.078 5.756 0 0 0 6.353-3.556 11.792-8.98 5.116-5.102 9.073-11.827 9.073-11.827.825-2.263 1.59-4.155 0-5.74"/></g></g></g></svg>